<mxfile host="app.diagrams.net" modified="2023-05-08T15:19:50.955Z" agent="Mozilla/5.0 (Windows NT 10.0; Win64; x64) AppleWebKit/537.36 (KHTML, like Gecko) Chrome/112.0.0.0 Safari/537.36" etag="84EFjSGYgdcZruSmlBmw" version="21.2.9" type="github">
  <diagram name="Page-1" id="CRNQidJyGZVOagn2CQu6">
    <mxGraphModel dx="3208" dy="1268" grid="1" gridSize="10" guides="1" tooltips="1" connect="1" arrows="1" fold="1" page="1" pageScale="1" pageWidth="850" pageHeight="1100" math="0" shadow="0">
      <root>
        <mxCell id="0" />
        <mxCell id="1" parent="0" />
        <mxCell id="foU8qJLjKtTW0TO3vTlr-1" value="" style="rounded=0;whiteSpace=wrap;html=1;fontStyle=1" parent="1" vertex="1">
          <mxGeometry y="35" width="900" height="1030" as="geometry" />
        </mxCell>
        <mxCell id="foU8qJLjKtTW0TO3vTlr-2" value="&lt;font style=&quot;font-size: 15px;&quot;&gt;&lt;span&gt;Web điểm danh cho trung tâm ngoại ngữ&lt;/span&gt;&lt;/font&gt;" style="rounded=0;whiteSpace=wrap;html=1;fontStyle=1" parent="1" vertex="1">
          <mxGeometry x="292.5" y="45" width="315" height="40" as="geometry" />
        </mxCell>
        <mxCell id="foU8qJLjKtTW0TO3vTlr-3" value="&lt;font style=&quot;&quot; color=&quot;#0000cc&quot;&gt;Admin&lt;/font&gt;" style="shape=umlActor;verticalLabelPosition=bottom;verticalAlign=top;html=1;outlineConnect=0;fontSize=15;fillColor=none;fontColor=#ffffff;strokeColor=#001DBC;fontStyle=1" parent="1" vertex="1">
          <mxGeometry x="1010" y="435" width="30" height="60" as="geometry" />
        </mxCell>
        <mxCell id="foU8qJLjKtTW0TO3vTlr-12" value="Giáo viên" style="shape=umlActor;verticalLabelPosition=bottom;verticalAlign=top;html=1;outlineConnect=0;fontSize=15;fontStyle=1" parent="1" vertex="1">
          <mxGeometry x="-100" y="225" width="30" height="60" as="geometry" />
        </mxCell>
        <mxCell id="foU8qJLjKtTW0TO3vTlr-16" value="Đăng nhập" style="ellipse;whiteSpace=wrap;html=1;fontStyle=1" parent="1" vertex="1">
          <mxGeometry x="390" y="125" width="110" height="60" as="geometry" />
        </mxCell>
        <mxCell id="foU8qJLjKtTW0TO3vTlr-26" value="Xem danh sách lớp học" style="ellipse;whiteSpace=wrap;html=1;fontStyle=1" parent="1" vertex="1">
          <mxGeometry x="590" y="655" width="110" height="60" as="geometry" />
        </mxCell>
        <mxCell id="foU8qJLjKtTW0TO3vTlr-28" value="Xem thông tin&lt;br&gt;cá nhân" style="ellipse;whiteSpace=wrap;html=1;fontStyle=1" parent="1" vertex="1">
          <mxGeometry x="400" y="315" width="110" height="60" as="geometry" />
        </mxCell>
        <mxCell id="foU8qJLjKtTW0TO3vTlr-29" value="Xem danh sách nhân sự/học viên" style="ellipse;whiteSpace=wrap;html=1;fontStyle=1" parent="1" vertex="1">
          <mxGeometry x="550" y="415" width="160" height="60" as="geometry" />
        </mxCell>
        <mxCell id="foU8qJLjKtTW0TO3vTlr-31" value="" style="endArrow=none;html=1;rounded=0;fontSize=15;exitX=1;exitY=0.3333333333333333;exitDx=0;exitDy=0;exitPerimeter=0;entryX=0;entryY=0.5;entryDx=0;entryDy=0;fontStyle=1;edgeStyle=orthogonalEdgeStyle;" parent="1" source="foU8qJLjKtTW0TO3vTlr-12" target="foU8qJLjKtTW0TO3vTlr-16" edge="1">
          <mxGeometry width="50" height="50" relative="1" as="geometry">
            <mxPoint x="420" y="455" as="sourcePoint" />
            <mxPoint x="470" y="405" as="targetPoint" />
            <Array as="points">
              <mxPoint x="-20" y="245" />
              <mxPoint x="-20" y="155" />
            </Array>
          </mxGeometry>
        </mxCell>
        <mxCell id="foU8qJLjKtTW0TO3vTlr-33" value="" style="endArrow=none;html=1;rounded=0;fontSize=15;exitX=1;exitY=0.3333333333333333;exitDx=0;exitDy=0;exitPerimeter=0;entryX=0;entryY=0.5;entryDx=0;entryDy=0;fontStyle=1;edgeStyle=orthogonalEdgeStyle;" parent="1" source="foU8qJLjKtTW0TO3vTlr-12" target="foU8qJLjKtTW0TO3vTlr-28" edge="1">
          <mxGeometry width="50" height="50" relative="1" as="geometry">
            <mxPoint x="50" y="465" as="sourcePoint" />
            <mxPoint x="400" y="345" as="targetPoint" />
            <Array as="points">
              <mxPoint x="-20" y="245" />
              <mxPoint x="-20" y="345" />
            </Array>
          </mxGeometry>
        </mxCell>
        <mxCell id="foU8qJLjKtTW0TO3vTlr-37" value="" style="endArrow=none;html=1;rounded=0;fontSize=15;fillColor=#0050ef;strokeColor=#001DBC;entryX=0;entryY=0.3333333333333333;entryDx=0;entryDy=0;entryPerimeter=0;exitX=1;exitY=0.5;exitDx=0;exitDy=0;fontStyle=1;edgeStyle=orthogonalEdgeStyle;" parent="1" source="foU8qJLjKtTW0TO3vTlr-16" target="foU8qJLjKtTW0TO3vTlr-3" edge="1">
          <mxGeometry width="50" height="50" relative="1" as="geometry">
            <mxPoint x="520" y="455" as="sourcePoint" />
            <mxPoint x="570" y="405" as="targetPoint" />
            <Array as="points">
              <mxPoint x="960" y="155" />
              <mxPoint x="960" y="455" />
            </Array>
          </mxGeometry>
        </mxCell>
        <mxCell id="foU8qJLjKtTW0TO3vTlr-39" value="" style="endArrow=none;html=1;rounded=0;fontSize=15;fillColor=#0050ef;strokeColor=#001DBC;exitX=1;exitY=0.5;exitDx=0;exitDy=0;entryX=0;entryY=0.3333333333333333;entryDx=0;entryDy=0;entryPerimeter=0;fontStyle=1;edgeStyle=orthogonalEdgeStyle;" parent="1" source="foU8qJLjKtTW0TO3vTlr-28" target="foU8qJLjKtTW0TO3vTlr-3" edge="1">
          <mxGeometry width="50" height="50" relative="1" as="geometry">
            <mxPoint x="510" y="345" as="sourcePoint" />
            <mxPoint x="860" y="455" as="targetPoint" />
            <Array as="points">
              <mxPoint x="960" y="345" />
              <mxPoint x="960" y="455" />
            </Array>
          </mxGeometry>
        </mxCell>
        <mxCell id="foU8qJLjKtTW0TO3vTlr-40" value="" style="endArrow=none;html=1;rounded=0;fontSize=15;fillColor=#0050ef;strokeColor=#001DBC;exitX=1;exitY=0.5;exitDx=0;exitDy=0;entryX=0;entryY=1;entryDx=0;entryDy=0;entryPerimeter=0;fontStyle=1;edgeStyle=orthogonalEdgeStyle;" parent="1" source="foU8qJLjKtTW0TO3vTlr-29" target="foU8qJLjKtTW0TO3vTlr-3" edge="1">
          <mxGeometry width="50" height="50" relative="1" as="geometry">
            <mxPoint x="510" y="435" as="sourcePoint" />
            <mxPoint x="870" y="465" as="targetPoint" />
            <Array as="points">
              <mxPoint x="960" y="445" />
              <mxPoint x="960" y="495" />
            </Array>
          </mxGeometry>
        </mxCell>
        <mxCell id="foU8qJLjKtTW0TO3vTlr-42" value="" style="endArrow=none;html=1;rounded=0;fontSize=15;fillColor=#0050ef;strokeColor=#001DBC;exitX=1;exitY=0.5;exitDx=0;exitDy=0;fontStyle=1;edgeStyle=orthogonalEdgeStyle;" parent="1" source="foU8qJLjKtTW0TO3vTlr-26" target="foU8qJLjKtTW0TO3vTlr-3" edge="1">
          <mxGeometry width="50" height="50" relative="1" as="geometry">
            <mxPoint x="720" y="665" as="sourcePoint" />
            <mxPoint x="870" y="505" as="targetPoint" />
            <Array as="points">
              <mxPoint x="960" y="685" />
              <mxPoint x="960" y="455" />
            </Array>
          </mxGeometry>
        </mxCell>
        <mxCell id="xnCUMMj6vFn5ndqKwVFb-1" value="&lt;font color=&quot;#008a00&quot;&gt;Giám thị&lt;/font&gt;" style="shape=umlActor;verticalLabelPosition=bottom;verticalAlign=top;html=1;outlineConnect=0;fontSize=15;fontStyle=1;fillColor=none;fontColor=#ffffff;strokeColor=#005700;" parent="1" vertex="1">
          <mxGeometry x="-100" y="735" width="30" height="60" as="geometry" />
        </mxCell>
        <mxCell id="xnCUMMj6vFn5ndqKwVFb-2" value="" style="endArrow=none;html=1;rounded=0;fontColor=#008a00;strokeColor=#008a00;exitX=1;exitY=0.3333333333333333;exitDx=0;exitDy=0;exitPerimeter=0;entryX=0;entryY=0;entryDx=0;entryDy=0;" parent="1" source="xnCUMMj6vFn5ndqKwVFb-1" target="foU8qJLjKtTW0TO3vTlr-16" edge="1">
          <mxGeometry width="50" height="50" relative="1" as="geometry">
            <mxPoint x="-20" y="775" as="sourcePoint" />
            <mxPoint x="30" y="725" as="targetPoint" />
            <Array as="points">
              <mxPoint x="-30" y="755" />
              <mxPoint x="-30" y="134" />
            </Array>
          </mxGeometry>
        </mxCell>
        <mxCell id="xnCUMMj6vFn5ndqKwVFb-4" value="" style="endArrow=none;html=1;rounded=0;fontColor=#008a00;strokeColor=#008a00;exitX=1;exitY=0.3333333333333333;exitDx=0;exitDy=0;exitPerimeter=0;entryX=0.073;entryY=0.233;entryDx=0;entryDy=0;entryPerimeter=0;" parent="1" source="xnCUMMj6vFn5ndqKwVFb-1" target="foU8qJLjKtTW0TO3vTlr-28" edge="1">
          <mxGeometry width="50" height="50" relative="1" as="geometry">
            <mxPoint x="-60" y="765" as="sourcePoint" />
            <mxPoint x="416" y="276" as="targetPoint" />
            <Array as="points">
              <mxPoint x="-30" y="755" />
              <mxPoint x="-30" y="329" />
            </Array>
          </mxGeometry>
        </mxCell>
        <mxCell id="xnCUMMj6vFn5ndqKwVFb-8" value="Ghi chú" style="ellipse;whiteSpace=wrap;html=1;fontStyle=1" parent="1" vertex="1">
          <mxGeometry x="735" y="952.5" width="90" height="50" as="geometry" />
        </mxCell>
        <mxCell id="xnCUMMj6vFn5ndqKwVFb-9" value="" style="endArrow=classic;html=1;rounded=0;dashed=1;fontStyle=1;" parent="1" source="xnCUMMj6vFn5ndqKwVFb-8" target="JiPtHDF4y1pOYtlBRICb-31" edge="1">
          <mxGeometry width="50" height="50" relative="1" as="geometry">
            <mxPoint x="580" y="125" as="sourcePoint" />
            <mxPoint x="530" y="1125" as="targetPoint" />
          </mxGeometry>
        </mxCell>
        <mxCell id="xnCUMMj6vFn5ndqKwVFb-10" value="&amp;lt;&amp;lt;Extend&amp;gt;&amp;gt;" style="edgeLabel;html=1;align=center;verticalAlign=middle;resizable=0;points=[];fontStyle=1" parent="xnCUMMj6vFn5ndqKwVFb-9" connectable="0" vertex="1">
          <mxGeometry x="-0.2233" relative="1" as="geometry">
            <mxPoint as="offset" />
          </mxGeometry>
        </mxCell>
        <mxCell id="JiPtHDF4y1pOYtlBRICb-1" value="Cập nhật thông tin cá nhân" style="ellipse;whiteSpace=wrap;html=1;fontStyle=1" parent="1" vertex="1">
          <mxGeometry x="500" y="205" width="140" height="60" as="geometry" />
        </mxCell>
        <mxCell id="JiPtHDF4y1pOYtlBRICb-2" value="" style="endArrow=classic;html=1;rounded=0;exitX=0;exitY=1;exitDx=0;exitDy=0;dashed=1;fontStyle=1;" parent="1" source="JiPtHDF4y1pOYtlBRICb-1" target="foU8qJLjKtTW0TO3vTlr-28" edge="1">
          <mxGeometry width="50" height="50" relative="1" as="geometry">
            <mxPoint x="550" y="255" as="sourcePoint" />
            <mxPoint x="494" y="186" as="targetPoint" />
          </mxGeometry>
        </mxCell>
        <mxCell id="JiPtHDF4y1pOYtlBRICb-3" value="&amp;lt;&amp;lt;Extend&amp;gt;&amp;gt;" style="edgeLabel;html=1;align=center;verticalAlign=middle;resizable=0;points=[];fontStyle=1" parent="JiPtHDF4y1pOYtlBRICb-2" connectable="0" vertex="1">
          <mxGeometry x="-0.2233" relative="1" as="geometry">
            <mxPoint as="offset" />
          </mxGeometry>
        </mxCell>
        <mxCell id="JiPtHDF4y1pOYtlBRICb-4" value="Xem thông tin nhân sự/học viên" style="ellipse;whiteSpace=wrap;html=1;fontStyle=1" parent="1" vertex="1">
          <mxGeometry x="292.5" y="420" width="147.5" height="55" as="geometry" />
        </mxCell>
        <mxCell id="JiPtHDF4y1pOYtlBRICb-5" value="Cập nhật thông tin" style="ellipse;whiteSpace=wrap;html=1;fontStyle=1" parent="1" vertex="1">
          <mxGeometry x="90" y="385" width="110" height="60" as="geometry" />
        </mxCell>
        <mxCell id="JiPtHDF4y1pOYtlBRICb-6" value="Thêm nhân sự/học viên" style="ellipse;whiteSpace=wrap;html=1;fontStyle=1" parent="1" vertex="1">
          <mxGeometry x="540" y="540" width="130" height="55" as="geometry" />
        </mxCell>
        <mxCell id="JiPtHDF4y1pOYtlBRICb-8" value="" style="endArrow=classic;html=1;rounded=0;exitX=1;exitY=0.5;exitDx=0;exitDy=0;dashed=1;fontStyle=1;entryX=0;entryY=0.5;entryDx=0;entryDy=0;" parent="1" source="JiPtHDF4y1pOYtlBRICb-4" target="foU8qJLjKtTW0TO3vTlr-29" edge="1">
          <mxGeometry width="50" height="50" relative="1" as="geometry">
            <mxPoint x="531" y="266" as="sourcePoint" />
            <mxPoint x="486" y="327" as="targetPoint" />
          </mxGeometry>
        </mxCell>
        <mxCell id="JiPtHDF4y1pOYtlBRICb-9" value="&amp;lt;&amp;lt;Extend&amp;gt;&amp;gt;" style="edgeLabel;html=1;align=center;verticalAlign=middle;resizable=0;points=[];fontStyle=1" parent="JiPtHDF4y1pOYtlBRICb-8" connectable="0" vertex="1">
          <mxGeometry x="-0.2233" relative="1" as="geometry">
            <mxPoint as="offset" />
          </mxGeometry>
        </mxCell>
        <mxCell id="JiPtHDF4y1pOYtlBRICb-11" value="" style="endArrow=classic;html=1;rounded=0;dashed=1;fontStyle=1;" parent="1" source="JiPtHDF4y1pOYtlBRICb-6" target="foU8qJLjKtTW0TO3vTlr-29" edge="1">
          <mxGeometry width="50" height="50" relative="1" as="geometry">
            <mxPoint x="432" y="475" as="sourcePoint" />
            <mxPoint x="560" y="455" as="targetPoint" />
          </mxGeometry>
        </mxCell>
        <mxCell id="JiPtHDF4y1pOYtlBRICb-12" value="&amp;lt;&amp;lt;Extend&amp;gt;&amp;gt;" style="edgeLabel;html=1;align=center;verticalAlign=middle;resizable=0;points=[];fontStyle=1" parent="JiPtHDF4y1pOYtlBRICb-11" connectable="0" vertex="1">
          <mxGeometry x="-0.2233" relative="1" as="geometry">
            <mxPoint as="offset" />
          </mxGeometry>
        </mxCell>
        <mxCell id="JiPtHDF4y1pOYtlBRICb-15" value="" style="endArrow=classic;html=1;rounded=0;exitX=0.995;exitY=0.592;exitDx=0;exitDy=0;dashed=1;fontStyle=1;entryX=0.012;entryY=0.381;entryDx=0;entryDy=0;entryPerimeter=0;exitPerimeter=0;" parent="1" source="JiPtHDF4y1pOYtlBRICb-5" target="JiPtHDF4y1pOYtlBRICb-4" edge="1">
          <mxGeometry width="50" height="50" relative="1" as="geometry">
            <mxPoint x="665" y="545" as="sourcePoint" />
            <mxPoint x="648" y="486" as="targetPoint" />
          </mxGeometry>
        </mxCell>
        <mxCell id="JiPtHDF4y1pOYtlBRICb-16" value="&amp;lt;&amp;lt;Extend&amp;gt;&amp;gt;" style="edgeLabel;html=1;align=center;verticalAlign=middle;resizable=0;points=[];fontStyle=1" parent="JiPtHDF4y1pOYtlBRICb-15" connectable="0" vertex="1">
          <mxGeometry x="-0.2233" relative="1" as="geometry">
            <mxPoint as="offset" />
          </mxGeometry>
        </mxCell>
        <mxCell id="JiPtHDF4y1pOYtlBRICb-17" value="Xem thông tin lớp học" style="ellipse;whiteSpace=wrap;html=1;fontStyle=1" parent="1" vertex="1">
          <mxGeometry x="310" y="660" width="170" height="55" as="geometry" />
        </mxCell>
        <mxCell id="JiPtHDF4y1pOYtlBRICb-18" value="Thêm học viên" style="ellipse;whiteSpace=wrap;html=1;fontStyle=1" parent="1" vertex="1">
          <mxGeometry x="40" y="640" width="120" height="60" as="geometry" />
        </mxCell>
        <mxCell id="JiPtHDF4y1pOYtlBRICb-19" value="Thêm lớp học" style="ellipse;whiteSpace=wrap;html=1;fontStyle=1" parent="1" vertex="1">
          <mxGeometry x="530" y="750" width="130" height="55" as="geometry" />
        </mxCell>
        <mxCell id="JiPtHDF4y1pOYtlBRICb-21" value="" style="endArrow=classic;html=1;rounded=0;dashed=1;fontStyle=1;" parent="1" source="JiPtHDF4y1pOYtlBRICb-18" target="JiPtHDF4y1pOYtlBRICb-17" edge="1">
          <mxGeometry width="50" height="50" relative="1" as="geometry">
            <mxPoint x="229" y="431" as="sourcePoint" />
            <mxPoint x="332" y="451" as="targetPoint" />
          </mxGeometry>
        </mxCell>
        <mxCell id="JiPtHDF4y1pOYtlBRICb-22" value="&amp;lt;&amp;lt;Extend&amp;gt;&amp;gt;" style="edgeLabel;html=1;align=center;verticalAlign=middle;resizable=0;points=[];fontStyle=1" parent="JiPtHDF4y1pOYtlBRICb-21" connectable="0" vertex="1">
          <mxGeometry x="-0.2233" relative="1" as="geometry">
            <mxPoint as="offset" />
          </mxGeometry>
        </mxCell>
        <mxCell id="JiPtHDF4y1pOYtlBRICb-24" value="" style="endArrow=classic;html=1;rounded=0;exitX=0.977;exitY=0.388;exitDx=0;exitDy=0;dashed=1;fontStyle=1;entryX=0;entryY=0.5;entryDx=0;entryDy=0;exitPerimeter=0;" parent="1" source="JiPtHDF4y1pOYtlBRICb-17" target="foU8qJLjKtTW0TO3vTlr-26" edge="1">
          <mxGeometry width="50" height="50" relative="1" as="geometry">
            <mxPoint x="303" y="685" as="sourcePoint" />
            <mxPoint x="405" y="695" as="targetPoint" />
          </mxGeometry>
        </mxCell>
        <mxCell id="JiPtHDF4y1pOYtlBRICb-25" value="&amp;lt;&amp;lt;Extend&amp;gt;&amp;gt;" style="edgeLabel;html=1;align=center;verticalAlign=middle;resizable=0;points=[];fontStyle=1" parent="JiPtHDF4y1pOYtlBRICb-24" connectable="0" vertex="1">
          <mxGeometry x="-0.2233" relative="1" as="geometry">
            <mxPoint as="offset" />
          </mxGeometry>
        </mxCell>
        <mxCell id="JiPtHDF4y1pOYtlBRICb-26" value="" style="endArrow=classic;html=1;rounded=0;dashed=1;fontStyle=1;" parent="1" source="JiPtHDF4y1pOYtlBRICb-19" target="foU8qJLjKtTW0TO3vTlr-26" edge="1">
          <mxGeometry width="50" height="50" relative="1" as="geometry">
            <mxPoint x="477" y="689" as="sourcePoint" />
            <mxPoint x="600" y="695" as="targetPoint" />
          </mxGeometry>
        </mxCell>
        <mxCell id="JiPtHDF4y1pOYtlBRICb-27" value="&amp;lt;&amp;lt;Extend&amp;gt;&amp;gt;" style="edgeLabel;html=1;align=center;verticalAlign=middle;resizable=0;points=[];fontStyle=1" parent="JiPtHDF4y1pOYtlBRICb-26" connectable="0" vertex="1">
          <mxGeometry x="-0.2233" relative="1" as="geometry">
            <mxPoint as="offset" />
          </mxGeometry>
        </mxCell>
        <mxCell id="JiPtHDF4y1pOYtlBRICb-30" value="Xem danh sách lớp học phụ trách" style="ellipse;whiteSpace=wrap;html=1;fontStyle=1" parent="1" vertex="1">
          <mxGeometry x="60" y="835" width="146" height="65" as="geometry" />
        </mxCell>
        <mxCell id="JiPtHDF4y1pOYtlBRICb-31" value="Điểm danh" style="ellipse;whiteSpace=wrap;html=1;fontStyle=1" parent="1" vertex="1">
          <mxGeometry x="720" y="850" width="120" height="50" as="geometry" />
        </mxCell>
        <mxCell id="JiPtHDF4y1pOYtlBRICb-32" value="" style="endArrow=classic;html=1;rounded=0;dashed=1;fontStyle=1;" parent="1" source="JiPtHDF4y1pOYtlBRICb-31" target="rXk7IQa9aIsszNPNrJmk-4" edge="1">
          <mxGeometry width="50" height="50" relative="1" as="geometry">
            <mxPoint x="693" y="942" as="sourcePoint" />
            <mxPoint x="541" y="916" as="targetPoint" />
          </mxGeometry>
        </mxCell>
        <mxCell id="JiPtHDF4y1pOYtlBRICb-33" value="&amp;lt;&amp;lt;Extend&amp;gt;&amp;gt;" style="edgeLabel;html=1;align=center;verticalAlign=middle;resizable=0;points=[];fontStyle=1" parent="JiPtHDF4y1pOYtlBRICb-32" connectable="0" vertex="1">
          <mxGeometry x="-0.2233" relative="1" as="geometry">
            <mxPoint as="offset" />
          </mxGeometry>
        </mxCell>
        <mxCell id="JiPtHDF4y1pOYtlBRICb-36" value="" style="endArrow=none;html=1;rounded=0;fontColor=#008a00;strokeColor=#008a00;exitX=1;exitY=0.3333333333333333;exitDx=0;exitDy=0;exitPerimeter=0;entryX=0.021;entryY=0.405;entryDx=0;entryDy=0;entryPerimeter=0;edgeStyle=orthogonalEdgeStyle;" parent="1" source="xnCUMMj6vFn5ndqKwVFb-1" target="JiPtHDF4y1pOYtlBRICb-30" edge="1">
          <mxGeometry width="50" height="50" relative="1" as="geometry">
            <mxPoint x="-60" y="765" as="sourcePoint" />
            <mxPoint x="418" y="339" as="targetPoint" />
            <Array as="points">
              <mxPoint x="-30" y="755" />
              <mxPoint x="-30" y="861" />
            </Array>
          </mxGeometry>
        </mxCell>
        <mxCell id="JiPtHDF4y1pOYtlBRICb-37" value="" style="endArrow=none;html=1;rounded=0;fontSize=15;fontStyle=1;exitX=1;exitY=0.3333333333333333;exitDx=0;exitDy=0;exitPerimeter=0;edgeStyle=orthogonalEdgeStyle;" parent="1" source="foU8qJLjKtTW0TO3vTlr-12" target="JiPtHDF4y1pOYtlBRICb-30" edge="1">
          <mxGeometry width="50" height="50" relative="1" as="geometry">
            <mxPoint x="-60" y="275" as="sourcePoint" />
            <mxPoint x="410" y="355" as="targetPoint" />
            <Array as="points">
              <mxPoint x="-20" y="245" />
              <mxPoint x="-20" y="840" />
            </Array>
          </mxGeometry>
        </mxCell>
        <mxCell id="x4KOJVOSGeH09oPiY5ND-3" value="Xem thông tin lớp học" style="ellipse;whiteSpace=wrap;html=1;fontStyle=1" parent="1" vertex="1">
          <mxGeometry x="300" y="845" width="120" height="55" as="geometry" />
        </mxCell>
        <mxCell id="x4KOJVOSGeH09oPiY5ND-4" value="" style="endArrow=classic;html=1;rounded=0;exitX=0;exitY=0.5;exitDx=0;exitDy=0;dashed=1;fontStyle=1;entryX=1;entryY=0.5;entryDx=0;entryDy=0;" parent="1" source="x4KOJVOSGeH09oPiY5ND-3" target="JiPtHDF4y1pOYtlBRICb-30" edge="1">
          <mxGeometry width="50" height="50" relative="1" as="geometry">
            <mxPoint x="450" y="955" as="sourcePoint" />
            <mxPoint x="319" y="895" as="targetPoint" />
          </mxGeometry>
        </mxCell>
        <mxCell id="x4KOJVOSGeH09oPiY5ND-5" value="&amp;lt;&amp;lt;Extend&amp;gt;&amp;gt;" style="edgeLabel;html=1;align=center;verticalAlign=middle;resizable=0;points=[];fontStyle=1" parent="x4KOJVOSGeH09oPiY5ND-4" connectable="0" vertex="1">
          <mxGeometry x="-0.2233" relative="1" as="geometry">
            <mxPoint as="offset" />
          </mxGeometry>
        </mxCell>
        <mxCell id="rXk7IQa9aIsszNPNrJmk-4" value="Xem thông tin buổi học" style="ellipse;whiteSpace=wrap;html=1;fontStyle=1" parent="1" vertex="1">
          <mxGeometry x="520" y="840" width="100" height="55" as="geometry" />
        </mxCell>
        <mxCell id="rXk7IQa9aIsszNPNrJmk-5" value="" style="endArrow=classic;html=1;rounded=0;dashed=1;fontStyle=1;" parent="1" source="rXk7IQa9aIsszNPNrJmk-4" target="x4KOJVOSGeH09oPiY5ND-3" edge="1">
          <mxGeometry width="50" height="50" relative="1" as="geometry">
            <mxPoint x="410" y="960" as="sourcePoint" />
            <mxPoint x="403" y="905" as="targetPoint" />
          </mxGeometry>
        </mxCell>
        <mxCell id="rXk7IQa9aIsszNPNrJmk-6" value="&amp;lt;&amp;lt;Extend&amp;gt;&amp;gt;" style="edgeLabel;html=1;align=center;verticalAlign=middle;resizable=0;points=[];fontStyle=1" parent="rXk7IQa9aIsszNPNrJmk-5" connectable="0" vertex="1">
          <mxGeometry x="-0.2233" relative="1" as="geometry">
            <mxPoint as="offset" />
          </mxGeometry>
        </mxCell>
        <mxCell id="a2AEFIXZdpebwBTr00Su-1" value="Vô hiệu hóa lớp học" style="ellipse;whiteSpace=wrap;html=1;fontStyle=1" parent="1" vertex="1">
          <mxGeometry x="120" y="770" width="130" height="55" as="geometry" />
        </mxCell>
        <mxCell id="a2AEFIXZdpebwBTr00Su-2" value="" style="endArrow=classic;html=1;rounded=0;dashed=1;fontStyle=1;" parent="1" source="a2AEFIXZdpebwBTr00Su-1" target="JiPtHDF4y1pOYtlBRICb-17" edge="1">
          <mxGeometry width="50" height="50" relative="1" as="geometry">
            <mxPoint x="726" y="791" as="sourcePoint" />
            <mxPoint x="676" y="723" as="targetPoint" />
          </mxGeometry>
        </mxCell>
        <mxCell id="a2AEFIXZdpebwBTr00Su-3" value="&amp;lt;&amp;lt;Extend&amp;gt;&amp;gt;" style="edgeLabel;html=1;align=center;verticalAlign=middle;resizable=0;points=[];fontStyle=1" parent="a2AEFIXZdpebwBTr00Su-2" connectable="0" vertex="1">
          <mxGeometry x="-0.2233" relative="1" as="geometry">
            <mxPoint as="offset" />
          </mxGeometry>
        </mxCell>
        <mxCell id="LTqq41CHlHI9jRhbb4c0-3" value="Xem thông tin buổi học" style="ellipse;whiteSpace=wrap;html=1;fontStyle=1" vertex="1" parent="1">
          <mxGeometry x="270" y="555" width="130" height="55" as="geometry" />
        </mxCell>
        <mxCell id="LTqq41CHlHI9jRhbb4c0-4" value="" style="endArrow=classic;html=1;rounded=0;dashed=1;fontStyle=1;" edge="1" parent="1" source="LTqq41CHlHI9jRhbb4c0-3" target="JiPtHDF4y1pOYtlBRICb-17">
          <mxGeometry width="50" height="50" relative="1" as="geometry">
            <mxPoint x="220" y="692" as="sourcePoint" />
            <mxPoint x="320" y="695" as="targetPoint" />
          </mxGeometry>
        </mxCell>
        <mxCell id="LTqq41CHlHI9jRhbb4c0-5" value="&amp;lt;&amp;lt;Extend&amp;gt;&amp;gt;" style="edgeLabel;html=1;align=center;verticalAlign=middle;resizable=0;points=[];fontStyle=1" connectable="0" vertex="1" parent="LTqq41CHlHI9jRhbb4c0-4">
          <mxGeometry x="-0.2233" relative="1" as="geometry">
            <mxPoint as="offset" />
          </mxGeometry>
        </mxCell>
        <mxCell id="LTqq41CHlHI9jRhbb4c0-6" value="Xóa học viên" style="ellipse;whiteSpace=wrap;html=1;fontStyle=1" vertex="1" parent="1">
          <mxGeometry x="40" y="710" width="120" height="60" as="geometry" />
        </mxCell>
        <mxCell id="LTqq41CHlHI9jRhbb4c0-7" value="" style="endArrow=classic;html=1;rounded=0;dashed=1;fontStyle=1;" edge="1" parent="1" source="LTqq41CHlHI9jRhbb4c0-6" target="JiPtHDF4y1pOYtlBRICb-17">
          <mxGeometry width="50" height="50" relative="1" as="geometry">
            <mxPoint x="236" y="786" as="sourcePoint" />
            <mxPoint x="360" y="721" as="targetPoint" />
          </mxGeometry>
        </mxCell>
        <mxCell id="LTqq41CHlHI9jRhbb4c0-8" value="&amp;lt;&amp;lt;Extend&amp;gt;&amp;gt;" style="edgeLabel;html=1;align=center;verticalAlign=middle;resizable=0;points=[];fontStyle=1" connectable="0" vertex="1" parent="LTqq41CHlHI9jRhbb4c0-7">
          <mxGeometry x="-0.2233" relative="1" as="geometry">
            <mxPoint as="offset" />
          </mxGeometry>
        </mxCell>
        <mxCell id="LTqq41CHlHI9jRhbb4c0-9" value="Thêm buổi học" style="ellipse;whiteSpace=wrap;html=1;fontStyle=1" vertex="1" parent="1">
          <mxGeometry x="50" y="575" width="120" height="60" as="geometry" />
        </mxCell>
        <mxCell id="LTqq41CHlHI9jRhbb4c0-10" value="" style="endArrow=classic;html=1;rounded=0;dashed=1;fontStyle=1;" edge="1" parent="1" source="LTqq41CHlHI9jRhbb4c0-9" target="JiPtHDF4y1pOYtlBRICb-17">
          <mxGeometry width="50" height="50" relative="1" as="geometry">
            <mxPoint x="209" y="680" as="sourcePoint" />
            <mxPoint x="323" y="690" as="targetPoint" />
          </mxGeometry>
        </mxCell>
        <mxCell id="LTqq41CHlHI9jRhbb4c0-11" value="&amp;lt;&amp;lt;Extend&amp;gt;&amp;gt;" style="edgeLabel;html=1;align=center;verticalAlign=middle;resizable=0;points=[];fontStyle=1" connectable="0" vertex="1" parent="LTqq41CHlHI9jRhbb4c0-10">
          <mxGeometry x="-0.2233" relative="1" as="geometry">
            <mxPoint as="offset" />
          </mxGeometry>
        </mxCell>
        <mxCell id="LTqq41CHlHI9jRhbb4c0-15" value="Cập nhật buổi học" style="ellipse;whiteSpace=wrap;html=1;fontStyle=1" vertex="1" parent="1">
          <mxGeometry x="100" y="495" width="120" height="60" as="geometry" />
        </mxCell>
        <mxCell id="LTqq41CHlHI9jRhbb4c0-16" value="" style="endArrow=classic;html=1;rounded=0;dashed=1;fontStyle=1;" edge="1" parent="1" source="LTqq41CHlHI9jRhbb4c0-15" target="LTqq41CHlHI9jRhbb4c0-3">
          <mxGeometry width="50" height="50" relative="1" as="geometry">
            <mxPoint x="207" y="619" as="sourcePoint" />
            <mxPoint x="351" y="676" as="targetPoint" />
          </mxGeometry>
        </mxCell>
        <mxCell id="LTqq41CHlHI9jRhbb4c0-17" value="&amp;lt;&amp;lt;Extend&amp;gt;&amp;gt;" style="edgeLabel;html=1;align=center;verticalAlign=middle;resizable=0;points=[];fontStyle=1" connectable="0" vertex="1" parent="LTqq41CHlHI9jRhbb4c0-16">
          <mxGeometry x="-0.2233" relative="1" as="geometry">
            <mxPoint as="offset" />
          </mxGeometry>
        </mxCell>
      </root>
    </mxGraphModel>
  </diagram>
</mxfile>
